# Blender v2.76 (sub 0) OBJ File: 'untitled.blend'
# www.blender.org
mtllib table.mtl
o Plane_Plane.001
v -2.450177 -0.000652 4.371159
v 0.557800 -0.000652 4.371159
v -2.450177 -0.000652 -1.044255
v 0.557800 -0.000652 -1.044255
v -2.450177 0.636120 -1.044255
v -2.450177 0.636120 4.371159
v 0.557800 0.636120 4.371159
v 0.557800 0.636120 -1.044255
v 0.557800 -0.000652 -1.044255
v -2.450177 -0.000652 -1.044255
v 0.557800 0.961982 -1.044255
v -2.450177 0.961982 -1.044255
v 0.557800 -0.000652 -1.294255
v -2.450177 -0.000652 -1.294255
v 0.557800 0.961982 -1.294255
v -2.450177 0.961982 -1.294255
v 0.807800 -0.000652 4.371159
v 0.807800 -0.000652 -1.044255
v 0.807800 0.961982 4.371159
v 0.807800 0.961982 -1.044255
v 0.807800 -0.000652 -1.044255
v 0.807800 0.961982 -1.044255
v 0.807800 -0.000652 -1.294255
v 0.807800 0.961982 -1.294255
v -2.450177 -0.000652 4.621159
v 0.557800 -0.000652 4.621159
v -2.450177 0.961982 4.621159
v 0.557800 0.961982 4.621159
v 0.807800 0.961982 4.621159
v 0.807800 -0.000652 4.621159
v -2.700177 -0.000652 -1.044255
v -2.700177 -0.000652 4.371159
v -2.700177 0.961982 -1.044255
v -2.700177 0.961982 4.371159
v -2.700177 0.961982 -1.044255
v -2.700177 -0.000652 -1.044255
v -2.700177 0.961982 -1.294255
v -2.700177 -0.000652 -1.294255
v -2.700177 -0.000652 4.621159
v -2.700177 0.961982 4.621159
v -2.450177 1.182384 -1.044255
v -2.450177 1.182384 4.371159
v 0.557800 1.182384 4.371159
v 0.557800 1.182384 -1.044255
v 0.807800 1.182384 4.371159
v 0.807800 1.182384 4.621159
v -2.450177 1.182384 -1.294255
v -2.700177 1.182384 -1.294255
v 0.557800 1.182384 -1.044255
v -2.450177 1.182384 -1.044255
v 0.557800 1.182384 -1.294255
v 0.807800 1.182384 -1.044255
v 0.807800 1.182384 -1.044255
v 0.807800 1.182384 -1.294255
v -2.450177 1.182384 4.621159
v 0.557800 1.182384 4.621159
v -2.700177 1.182384 -1.044255
v -2.700177 1.182384 4.371159
v -2.700177 1.182384 -1.044255
v -2.700177 1.182384 4.621159
vn 0.000000 -1.000000 0.000000
vn 0.000000 1.000000 0.000000
vn -1.000000 0.000000 0.000000
vn 0.000000 0.000000 1.000000
vn 0.000000 0.000000 -1.000000
vn 1.000000 0.000000 0.000000
usemtl None
s off
f 1//1 3//1 4//1 2//1
f 6//2 7//2 8//2 5//2
f 2//1 4//1 18//1 17//1
f 33//3 34//3 58//3 57//3
f 3//4 5//4 12//4 10//4
f 7//5 6//5 42//5 43//5
f 1//1 25//1 39//1 32//1
f 5//4 8//4 11//4 12//4
f 4//4 3//4 10//4 9//4
f 8//4 4//4 9//4 11//4
f 13//5 14//5 16//5 15//5
f 22//6 24//6 54//6 53//6
f 6//6 5//6 41//6 42//6
f 9//1 10//1 14//1 13//1
f 17//6 18//6 20//6 19//6
f 22//6 21//6 23//6 24//6
f 13//5 15//5 24//5 23//5
f 17//6 19//6 29//6 30//6
f 9//1 13//1 23//1 21//1
f 11//4 9//4 21//4 22//4
f 4//5 8//5 20//5 18//5
f 5//5 33//5 57//5 41//5
f 25//4 26//4 28//4 27//4
f 28//4 26//4 30//4 29//4
f 1//1 2//1 26//1 25//1
f 37//3 35//3 59//3 48//3
f 16//5 37//5 48//5 47//5
f 2//1 17//1 30//1 26//1
f 31//3 32//3 34//3 33//3
f 36//3 35//3 37//3 38//3
f 34//3 32//3 39//3 40//3
f 5//5 3//5 31//5 33//5
f 29//6 19//6 45//6 46//6
f 14//1 10//1 36//1 38//1
f 10//4 12//4 35//4 36//4
f 16//5 14//5 38//5 37//5
f 25//4 27//4 40//4 39//4
f 3//1 1//1 32//1 31//1
f 42//2 41//2 57//2 58//2
f 43//2 42//2 55//2 56//2
f 50//2 49//2 51//2 47//2
f 51//2 49//2 53//2 54//2
f 44//2 43//2 45//2 52//2
f 50//2 47//2 48//2 59//2
f 45//2 43//2 56//2 46//2
f 55//2 42//2 58//2 60//2
f 28//4 29//4 46//4 56//4
f 12//4 11//4 49//4 50//4
f 34//3 40//3 60//3 58//3
f 8//3 7//3 43//3 44//3
f 20//5 8//5 44//5 52//5
f 15//5 16//5 47//5 51//5
f 40//4 27//4 55//4 60//4
f 11//4 22//4 53//4 49//4
f 19//6 20//6 52//6 45//6
f 24//5 15//5 51//5 54//5
f 35//4 12//4 50//4 59//4
f 27//4 28//4 56//4 55//4
